<svg width="22.000000" height="22.000000" viewBox="0 0 22 22" fill="none" xmlns="http://www.w3.org/2000/svg" xmlns:xlink="http://www.w3.org/1999/xlink">
	<desc>
			Created with Pixso.
	</desc>
	<defs/>
	<g opacity="0.500000">
		<path id="Vector" d="M22 3.64C22 1.7 20.29 0 18.35 0L3.64 0C1.7 0 0 1.7 0 3.64L0 18.35C0 20.29 1.7 22 3.64 22L11.05 22L11.05 13.67L8.32 13.67L8.32 10.03L11.05 10.03L11.05 8.54C11.05 6.04 12.88 3.87 15.16 3.87L18.12 3.87L18.12 7.52L15.16 7.52C14.81 7.52 14.47 7.86 14.47 8.54L14.47 10.03L18.12 10.03L18.12 13.67L14.47 13.67L14.47 22L18.35 22C20.29 22 22 20.29 22 18.35L22 3.64Z" fill="#FFFFFF" fill-opacity="1.000000" fill-rule="nonzero"/>
	</g>
</svg>
