<svg width="22.000000" height="22.000000" viewBox="0 0 22 22" fill="none" xmlns="http://www.w3.org/2000/svg" xmlns:xlink="http://www.w3.org/1999/xlink">
	<desc>
			Created with Pixso.
	</desc>
	<defs/>
	<path d="M18.86 0L3.13 0C1.35 0 0 1.35 0 3.13L0 18.86C0 20.64 1.35 22 3.13 22L18.86 22C20.64 22 22 20.64 22 18.86L22 3.13C22 1.35 20.64 0 18.86 0ZM11 17.6C14.63 17.6 17.6 14.72 17.6 11.25C17.6 10.66 17.51 9.98 17.34 9.47L19.2 9.47L19.2 18.44C19.2 18.86 18.86 19.29 18.36 19.29L3.63 19.29C3.21 19.29 2.79 18.95 2.79 18.44L2.79 9.39L4.73 9.39C4.56 9.98 4.48 10.57 4.48 11.16C4.4 14.72 7.36 17.6 11 17.6ZM11 15.06C8.63 15.06 6.76 13.2 6.76 10.91C6.76 8.63 8.63 6.76 11 6.76C13.36 6.76 15.23 8.63 15.23 10.91C15.23 13.28 13.36 15.06 11 15.06ZM19.12 6C19.12 6.51 18.7 6.93 18.19 6.93L15.82 6.93C15.31 6.93 14.89 6.51 14.89 6L14.89 3.72C14.89 3.21 15.31 2.79 15.82 2.79L18.19 2.79C18.7 2.79 19.12 3.21 19.12 3.72L19.12 6Z" fill="#464646" fill-opacity="1.000000" fill-rule="nonzero"/>
</svg>
