<svg width="24.000000" height="18.000000" viewBox="0 0 24 18" fill="none" xmlns="http://www.w3.org/2000/svg" xmlns:xlink="http://www.w3.org/1999/xlink">
	<desc>
			Created with Pixso.
	</desc>
	<defs/>
	<path id="Vector" d="M24 6.9C24 6.36 23.91 5.72 23.91 5C23.82 4.27 23.73 3.54 23.64 2.9C23.47 2.18 23.21 1.63 22.68 1.18C22.24 0.72 21.63 0.45 21.02 0.36C19 0.09 16.02 0 12 0C7.97 0 4.9 0.09 2.97 0.36C2.36 0.45 1.75 0.72 1.31 1.18C0.87 1.63 0.52 2.18 0.35 2.9C0.17 3.54 0.08 4.18 0.08 5C0 5.72 0 6.36 0 6.9C0 7.45 0 8.09 0 9C0 9.9 0 10.63 0 11.09C0 11.63 0.08 12.27 0.08 13C0.17 13.72 0.26 14.45 0.35 15.09C0.52 15.81 0.78 16.36 1.31 16.81C1.75 17.27 2.36 17.54 2.97 17.63C4.99 17.9 7.97 18 12 18C16.02 18 19.09 17.9 21.02 17.63C21.63 17.54 22.24 17.27 22.68 16.81C23.12 16.36 23.47 15.81 23.64 15.09C23.82 14.45 23.91 13.81 23.91 13C24 12.27 24 11.63 24 11.09C24 10.54 24 9.9 24 9C24 8.09 24 7.36 24 6.9ZM16.64 9.72L9.72 14.18C9.63 14.27 9.45 14.36 9.28 14.36C9.1 14.36 9.02 14.36 8.84 14.27C8.58 14.09 8.4 13.81 8.4 13.45L8.4 4.45C8.4 4.09 8.58 3.81 8.84 3.63C9.1 3.45 9.45 3.45 9.72 3.63L16.64 8.09C16.9 8.27 17.08 8.54 17.08 8.81C17.08 9.09 16.9 9.54 16.64 9.72Z" fill="#464646" fill-opacity="1.000000" fill-rule="nonzero"/>
</svg>
