<svg width="25.000000" height="21.000000" viewBox="0 0 25 21" fill="none" xmlns="http://www.w3.org/2000/svg" xmlns:xlink="http://www.w3.org/1999/xlink">
	<desc>
			Created with Pixso.
	</desc>
	<defs/>
	<path id="-" d="M1.5 0L23.5 0C24.32 0 25 0.67 25 1.5C25 2.32 24.32 3 23.5 3L1.5 3C0.67 3 0 2.32 0 1.5C0 0.67 0.67 0 1.5 0Z" fill="#464646" fill-opacity="1.000000" fill-rule="nonzero"/>
	<path id="-" d="M1.5 9L23.5 9C24.32 9 25 9.67 25 10.5C25 11.32 24.32 12 23.5 12L1.5 12C0.67 12 0 11.32 0 10.5C0 9.67 0.67 9 1.5 9Z" fill="#464646" fill-opacity="1.000000" fill-rule="nonzero"/>
	<path id="-" d="M1.5 18L23.5 18C24.32 18 25 18.67 25 19.5C25 20.32 24.32 21 23.5 21L1.5 21C0.67 21 0 20.32 0 19.5C0 18.67 0.67 18 1.5 18Z" fill="#464646" fill-opacity="1.000000" fill-rule="nonzero"/>
</svg>
