<svg width="19.799011" height="19.798990" viewBox="0 0 19.799 19.799" fill="none" xmlns="http://www.w3.org/2000/svg" xmlns:xlink="http://www.w3.org/1999/xlink">
	<desc>
			Created with Pixso.
	</desc>
	<defs/>
	<path id="-" d="M3.18 1.06L18.73 16.61C19.32 17.2 19.32 18.15 18.73 18.73C18.15 19.32 17.2 19.32 16.61 18.73L1.06 3.18C0.47 2.59 0.47 1.64 1.06 1.06C1.64 0.47 2.59 0.47 3.18 1.06Z" fill="#464646" fill-opacity="1.000000" fill-rule="nonzero"/>
	<path id="-" d="M1.06 16.61L16.61 1.06C17.2 0.47 18.15 0.47 18.73 1.06C19.32 1.64 19.32 2.59 18.73 3.18L3.18 18.73C2.59 19.32 1.64 19.32 1.06 18.73C0.47 18.15 0.47 17.2 1.06 16.61Z" fill="#464646" fill-opacity="1.000000" fill-rule="nonzero"/>
</svg>
