<svg width="14.000000" height="14.000000" viewBox="0 0 14 14" fill="none" xmlns="http://www.w3.org/2000/svg" xmlns:xlink="http://www.w3.org/1999/xlink">
	<desc>
			Created with Pixso.
	</desc>
	<defs/>
	<path id="Vector" d="M7 0C3.13 0 0 3.13 0 7C0 10.86 3.13 14 7 14C10.86 14 14 10.86 14 7C14 3.13 10.86 0 7 0ZM7 12.83C3.77 12.83 1.16 10.22 1.16 7C1.16 3.77 3.77 1.16 7 1.16C10.22 1.16 12.83 3.77 12.83 7C12.83 10.22 10.22 12.83 7 12.83ZM7.58 2.33L6.41 2.33L6.41 7.58L10.5 7.58L10.5 6.41L7.58 6.41L7.58 2.33Z" fill="#82828280" fill-opacity="1.000000" fill-rule="evenodd"/>
</svg>
