<svg width="20.000000" height="19.000000" viewBox="0 0 20 19" fill="none" xmlns="http://www.w3.org/2000/svg" xmlns:xlink="http://www.w3.org/1999/xlink">
	<desc>
			Created with Pixso.
	</desc>
	<defs/>
	<path id="Vector" d="M3.55 18.06L4.96 12.05L0.28 8C0.15 7.89 0.06 7.76 0.02 7.61C-0.02 7.47 -0.01 7.32 0.05 7.19C0.11 7.05 0.19 6.94 0.29 6.85C0.39 6.77 0.53 6.71 0.7 6.68L6.88 6.14L9.29 0.45C9.35 0.29 9.45 0.17 9.57 0.1C9.7 0.03 9.84 0 9.99 0C10.15 0 10.29 0.03 10.42 0.1C10.54 0.17 10.64 0.29 10.7 0.45L13.11 6.14L19.29 6.68C19.46 6.71 19.6 6.76 19.7 6.85C19.8 6.94 19.88 7.05 19.94 7.19C20 7.32 20.01 7.47 19.97 7.61C19.93 7.76 19.84 7.89 19.71 8L15.03 12.05L16.44 18.06C16.5 18.22 16.49 18.38 16.43 18.52C16.36 18.67 16.26 18.78 16.14 18.85C16.01 18.93 15.88 18.98 15.75 18.99C15.62 19.01 15.47 18.98 15.32 18.9L9.99 15.69L4.68 18.9C4.52 18.98 4.37 19.01 4.24 18.99C4.11 18.98 3.98 18.93 3.85 18.85C3.73 18.78 3.63 18.67 3.57 18.52C3.5 18.38 3.49 18.23 3.55 18.06ZM4.65 17.75L6.08 11.69L1.37 7.62L7.56 7.08L9.99 1.34L12.43 7.08L18.61 7.62L13.91 11.69L15.34 17.75L9.99 14.53L4.65 17.75ZM9.78 0.83L9.77 0.82Q9.78 0.82 9.78 0.83Z" fill="#DAB44C" fill-opacity="1.000000" fill-rule="evenodd"/>
</svg>
