<svg width="20" height="20" viewBox="0 0 20 20" fill="none" xmlns="http://www.w3.org/2000/svg">
<rect x="10" width="10" height="20" fill="#F1F1F1"/>
<path d="M10 0.5C10.038 0.500009 10.0707 0.504349 10.0996 0.511719L10.1758 0.541992C10.18 0.54439 10.1893 0.55007 10.2012 0.564453L10.2432 0.640625L10.2471 0.649414L12.6562 6.33984L12.7734 6.61621L13.0732 6.64258L19.2158 7.17773C19.2681 7.18701 19.3052 7.19798 19.3311 7.20898L19.3799 7.23633L19.3818 7.23828C19.4178 7.26865 19.4556 7.31508 19.4893 7.39062V7.3916C19.5006 7.41758 19.5052 7.44164 19.4932 7.48438C19.4818 7.52459 19.4574 7.56747 19.3975 7.61621L19.3857 7.62598L14.7041 11.6758L14.4756 11.874L14.5449 12.168L15.96 18.1768L15.9648 18.1982L15.9717 18.2178C15.9919 18.2793 15.9837 18.3038 15.9766 18.3193C15.9633 18.3483 15.9491 18.371 15.9336 18.3887L15.8828 18.4297L15.8779 18.4336C15.8442 18.4546 15.8127 18.4699 15.7832 18.4805L15.6992 18.499C15.6861 18.5005 15.6404 18.501 15.5488 18.457L10.2578 15.2705L10 15.1143L9.74219 15.2705L4.45117 18.457C4.36081 18.5002 4.31362 18.5006 4.29883 18.499C4.24517 18.492 4.18572 18.4719 4.11719 18.4307C4.08066 18.4077 4.05021 18.377 4.02539 18.3223C4.01829 18.3066 4.0092 18.2794 4.03027 18.2119L4.03516 18.1943L4.03906 18.1768L5.45508 12.168L5.52441 11.874L5.29492 11.6758L0.613281 7.62598L0.608398 7.62109L0.601562 7.61621L0.536133 7.54688C0.521411 7.5251 0.512498 7.50441 0.506836 7.48438C0.501048 7.46383 0.499137 7.44757 0.5 7.43359L0.510742 7.39453C0.543807 7.32004 0.581353 7.27055 0.619141 7.23633C0.637434 7.22224 0.682906 7.19626 0.780273 7.17773L6.92676 6.64258L7.22656 6.61621L7.34375 6.33984L9.75293 0.649414L9.75391 0.645508C9.77052 0.605295 9.78699 0.580803 9.7998 0.56543L9.82617 0.541016C9.86989 0.516138 9.92427 0.5 10 0.5Z" stroke="#DAB44C"/>
</svg>
