<svg width="112" height="20" viewBox="0 0 112 20" fill="none" xmlns="http://www.w3.org/2000/svg">
<path d="M9.99988 15.6984L4.68096 18.9029C4.52466 18.9799 4.3796 19.0111 4.24577 18.9965C4.11292 18.9809 3.98349 18.9351 3.85748 18.8591C3.73049 18.7811 3.63476 18.671 3.57028 18.5287C3.50581 18.3864 3.49995 18.2309 3.5527 18.0623L4.96815 12.0537L0.28662 8.00414C0.154746 7.89693 0.067807 7.76877 0.0258026 7.61965C-0.0162017 7.47053 -0.00692159 7.32775 0.0536428 7.1913C0.114207 7.05486 0.194797 6.94277 0.295412 6.85506C0.397004 6.77026 0.533762 6.71276 0.705687 6.68255L6.88325 6.14455L9.29215 0.454665C9.35858 0.293851 9.45431 0.17787 9.57935 0.106722C9.70438 0.0355739 9.84456 0 9.99988 0C10.1552 0 10.2959 0.0355739 10.4219 0.106722C10.5479 0.17787 10.6431 0.293851 10.7076 0.454665L13.1165 6.14455L19.2926 6.68255C19.4655 6.71179 19.6027 6.76978 19.7043 6.85652C19.8059 6.94229 19.887 7.05388 19.9476 7.1913C20.0072 7.32775 20.016 7.47053 19.9739 7.61965C19.9319 7.76877 19.845 7.89693 19.7131 8.00414L15.0316 12.0537L16.4471 18.0623C16.5018 18.229 16.4964 18.3839 16.4309 18.5272C16.3655 18.6705 16.2693 18.7806 16.1423 18.8576C16.0172 18.9356 15.8878 18.9819 15.754 18.9965C15.6211 19.0111 15.4766 18.9799 15.3203 18.9029L9.99988 15.6984Z" fill="#DAB44C"/>
<path d="M32.9999 15.6984L27.681 18.9029C27.5247 18.9799 27.3796 19.0111 27.2458 18.9965C27.1129 18.9809 26.9835 18.9351 26.8575 18.8591C26.7305 18.7811 26.6348 18.671 26.5703 18.5287C26.5058 18.3864 26.5 18.2309 26.5527 18.0623L27.9681 12.0537L23.2866 8.00414C23.1547 7.89693 23.0678 7.76877 23.0258 7.61965C22.9838 7.47053 22.9931 7.32775 23.0536 7.1913C23.1142 7.05486 23.1948 6.94277 23.2954 6.85506C23.397 6.77026 23.5338 6.71276 23.7057 6.68255L29.8833 6.14455L32.2922 0.454665C32.3586 0.293851 32.4543 0.17787 32.5793 0.106722C32.7044 0.0355739 32.8446 0 32.9999 0C33.1552 0 33.2959 0.0355739 33.4219 0.106722C33.5479 0.17787 33.6431 0.293851 33.7076 0.454665L36.1165 6.14455L42.2926 6.68255C42.4655 6.71179 42.6027 6.76978 42.7043 6.85652C42.8059 6.94229 42.887 7.05388 42.9476 7.1913C43.0072 7.32775 43.016 7.47053 42.9739 7.61965C42.9319 7.76877 42.845 7.89693 42.7131 8.00414L38.0316 12.0537L39.4471 18.0623C39.5018 18.229 39.4964 18.3839 39.4309 18.5272C39.3655 18.6705 39.2693 18.7806 39.1423 18.8576C39.0172 18.9356 38.8878 18.9819 38.754 18.9965C38.6211 19.0111 38.4766 18.9799 38.3203 18.9029L32.9999 15.6984Z" fill="#DAB44C"/>
<path d="M55.9999 15.6984L50.681 18.9029C50.5247 18.9799 50.3796 19.0111 50.2458 18.9965C50.1129 18.9809 49.9835 18.9351 49.8575 18.8591C49.7305 18.7811 49.6348 18.671 49.5703 18.5287C49.5058 18.3864 49.5 18.2309 49.5527 18.0623L50.9681 12.0537L46.2866 8.00414C46.1547 7.89693 46.0678 7.76877 46.0258 7.61965C45.9838 7.47053 45.9931 7.32775 46.0536 7.1913C46.1142 7.05486 46.1948 6.94277 46.2954 6.85506C46.397 6.77026 46.5338 6.71276 46.7057 6.68255L52.8833 6.14455L55.2922 0.454665C55.3586 0.293851 55.4543 0.17787 55.5793 0.106722C55.7044 0.0355739 55.8446 0 55.9999 0C56.1552 0 56.2959 0.0355739 56.4219 0.106722C56.5479 0.17787 56.6431 0.293851 56.7076 0.454665L59.1165 6.14455L65.2926 6.68255C65.4655 6.71179 65.6027 6.76978 65.7043 6.85652C65.8059 6.94229 65.887 7.05388 65.9476 7.1913C66.0072 7.32775 66.016 7.47053 65.9739 7.61965C65.9319 7.76877 65.845 7.89693 65.7131 8.00414L61.0316 12.0537L62.4471 18.0623C62.5018 18.229 62.4964 18.3839 62.4309 18.5272C62.3655 18.6705 62.2693 18.7806 62.1423 18.8576C62.0172 18.9356 61.8878 18.9819 61.754 18.9965C61.6211 19.0111 61.4766 18.9799 61.3203 18.9029L55.9999 15.6984Z" fill="#DAB44C"/>
<path d="M78.9999 15.6984L73.681 18.9029C73.5247 18.9799 73.3796 19.0111 73.2458 18.9965C73.1129 18.9809 72.9835 18.9351 72.8575 18.8591C72.7305 18.7811 72.6348 18.671 72.5703 18.5287C72.5058 18.3864 72.5 18.2309 72.5527 18.0623L73.9681 12.0537L69.2866 8.00414C69.1547 7.89693 69.0678 7.76877 69.0258 7.61965C68.9838 7.47053 68.9931 7.32775 69.0536 7.1913C69.1142 7.05486 69.1948 6.94277 69.2954 6.85506C69.397 6.77026 69.5338 6.71276 69.7057 6.68255L75.8833 6.14455L78.2922 0.454665C78.3586 0.293851 78.4543 0.17787 78.5793 0.106722C78.7044 0.0355739 78.8446 0 78.9999 0C79.1552 0 79.2959 0.0355739 79.4219 0.106722C79.5479 0.17787 79.6431 0.293851 79.7076 0.454665L82.1165 6.14455L88.2926 6.68255C88.4655 6.71179 88.6027 6.76978 88.7043 6.85652C88.8059 6.94229 88.887 7.05388 88.9476 7.1913C89.0072 7.32775 89.016 7.47053 88.9739 7.61965C88.9319 7.76877 88.845 7.89693 88.7131 8.00414L84.0316 12.0537L85.4471 18.0623C85.5018 18.229 85.4964 18.3839 85.4309 18.5272C85.3655 18.6705 85.2693 18.7806 85.1423 18.8576C85.0172 18.9356 84.8878 18.9819 84.754 18.9965C84.6211 19.0111 84.4766 18.9799 84.3203 18.9029L78.9999 15.6984Z" fill="#DAB44C"/>
<path d="M102 15.6984L96.681 18.9029C96.5247 18.9799 96.3796 19.0111 96.2458 18.9965C96.1129 18.9809 95.9835 18.9351 95.8575 18.8591C95.7305 18.7811 95.6348 18.671 95.5703 18.5287C95.5058 18.3864 95.5 18.2309 95.5527 18.0623L96.9681 12.0537L92.2866 8.00414C92.1547 7.89693 92.0678 7.76877 92.0258 7.61965C91.9838 7.47053 91.9931 7.32775 92.0536 7.1913C92.1142 7.05486 92.1948 6.94277 92.2954 6.85506C92.397 6.77026 92.5338 6.71276 92.7057 6.68255L98.8833 6.14455L101.292 0.454665C101.359 0.293851 101.454 0.17787 101.579 0.106722C101.704 0.0355739 101.845 0 102 0C102.155 0 102.296 0.0355739 102.422 0.106722C102.548 0.17787 102.643 0.293851 102.708 0.454665L105.116 6.14455L111.293 6.68255C111.466 6.71179 111.603 6.76978 111.704 6.85652C111.806 6.94229 111.887 7.05388 111.948 7.1913C112.007 7.32775 112.016 7.47053 111.974 7.61965C111.932 7.76877 111.845 7.89693 111.713 8.00414L107.032 12.0537L108.447 18.0623C108.502 18.229 108.496 18.3839 108.431 18.5272C108.365 18.6705 108.269 18.7806 108.142 18.8576C108.017 18.9356 107.888 18.9819 107.754 18.9965C107.621 19.0111 107.477 18.9799 107.32 18.9029L102 15.6984Z" fill="#DAB44C"/>
<rect x="102" width="10" height="20" fill="#F1F1F1"/>
<path d="M102 0.5C102.038 0.500009 102.071 0.504349 102.1 0.511719L102.176 0.541992C102.18 0.54439 102.189 0.55007 102.201 0.564453L102.243 0.640625L102.247 0.649414L104.656 6.33984L104.773 6.61621L105.073 6.64258L111.216 7.17773C111.268 7.18701 111.305 7.19798 111.331 7.20898L111.38 7.23633L111.382 7.23828C111.418 7.26865 111.456 7.31508 111.489 7.39062V7.3916C111.501 7.41758 111.505 7.44164 111.493 7.48438C111.482 7.52459 111.457 7.56747 111.397 7.61621L111.386 7.62598L106.704 11.6758L106.476 11.874L106.545 12.168L107.96 18.1768L107.965 18.1982L107.972 18.2178C107.992 18.2793 107.984 18.3038 107.977 18.3193C107.963 18.3483 107.949 18.371 107.934 18.3887L107.883 18.4297L107.878 18.4336C107.844 18.4546 107.813 18.4699 107.783 18.4805L107.699 18.499C107.686 18.5005 107.64 18.501 107.549 18.457L102.258 15.2705L102 15.1143L101.742 15.2705L96.4512 18.457C96.3608 18.5002 96.3136 18.5006 96.2988 18.499C96.2452 18.492 96.1857 18.4719 96.1172 18.4307C96.0807 18.4077 96.0502 18.377 96.0254 18.3223C96.0183 18.3066 96.0092 18.2794 96.0303 18.2119L96.0352 18.1943L96.0391 18.1768L97.4551 12.168L97.5244 11.874L97.2949 11.6758L92.6133 7.62598L92.6084 7.62109L92.6016 7.61621L92.5361 7.54688C92.5214 7.5251 92.5125 7.50441 92.5068 7.48438C92.501 7.46383 92.4991 7.44757 92.5 7.43359L92.5107 7.39453C92.5438 7.32004 92.5814 7.27055 92.6191 7.23633C92.6374 7.22224 92.6829 7.19626 92.7803 7.17773L98.9268 6.64258L99.2266 6.61621L99.3438 6.33984L101.753 0.649414L101.754 0.645508C101.771 0.605295 101.787 0.580803 101.8 0.56543L101.826 0.541016C101.87 0.516138 101.924 0.5 102 0.5Z" stroke="#DAB44C"/>
</svg>
